# xmcd
# 
# Track frame offsets:
#     150
#     15804
#     33654
#     46629
#     62079
#     78879
#     96804
#     112179
#     127701
#     149301
#     167901
#     183651
#     200488
#     218788
# 
# Disc length: 3151
# 
# Revision: 7
# Processed by: cddbd v1.5.2PL0 Copyright (c) Steve Scherf et al.
# Submitted via: BonkEnc v1.0
# 
DISCID=b80c4d0e
DTITLE=Baladas 2005 - Baladas 2005
DYEAR=2005
DGENRE=Dance
TTITLE0=Can You Feel it
TTITLE1=Incomplete
TTITLE2=Axel F
TTITLE3=Numb/Encore
TTITLE4=Fell Good Inc
TTITLE5=Loneny
TTITLE6=It's Like That
TTITLE7=Gasolina
TTITLE8=Speed of Sound
TTITLE9=Rich Girl
TTITLE10=Candy Shop
TTITLE11=My Boo
TTITLE12=Sunday Mornig
TTITLE13=Hey Ho
EXTD=SBT Music
EXTT0=
EXTT1=
EXTT2=
EXTT3=
EXTT4=
EXTT5=
EXTT6=
EXTT7=
EXTT8=
EXTT9=
EXTT10=
EXTT11=
EXTT12=
EXTT13=
PLAYORDER=
